<svg viewBox="0 0 20 20" fill="none" xmlns="http://www.w3.org/2000/svg">
    <path d="M9 9H15C15.2833 9 15.5207 8.904 15.712 8.712C15.904 8.52067 16 8.28333 16 8C16 7.71667 15.904 7.479 15.712 7.287C15.5207 7.09567 15.2833 7 15 7H9C8.71667 7 8.47933 7.09567 8.288 7.287C8.096 7.479 8 7.71667 8 8C8 8.28333 8.096 8.52067 8.288 8.712C8.47933 8.904 8.71667 9 9 9ZM9 12H11C11.2833 12 11.521 11.904 11.713 11.712C11.9043 11.5207 12 11.2833 12 11C12 10.7167 11.9043 10.479 11.713 10.287C11.521 10.0957 11.2833 10 11 10H9C8.71667 10 8.47933 10.0957 8.288 10.287C8.096 10.479 8 10.7167 8 11C8 11.2833 8.096 11.5207 8.288 11.712C8.47933 11.904 8.71667 12 9 12ZM9 6H15C15.2833 6 15.5207 5.90433 15.712 5.713C15.904 5.521 16 5.28333 16 5C16 4.71667 15.904 4.479 15.712 4.287C15.5207 4.09567 15.2833 4 15 4H9C8.71667 4 8.47933 4.09567 8.288 4.287C8.096 4.479 8 4.71667 8 5C8 5.28333 8.096 5.521 8.288 5.713C8.47933 5.90433 8.71667 6 9 6ZM6 16C5.45 16 4.97933 15.8043 4.588 15.413C4.196 15.021 4 14.55 4 14V2C4 1.45 4.196 0.979 4.588 0.587C4.97933 0.195667 5.45 0 6 0H18C18.55 0 19.021 0.195667 19.413 0.587C19.8043 0.979 20 1.45 20 2V14C20 14.55 19.8043 15.021 19.413 15.413C19.021 15.8043 18.55 16 18 16H6ZM2 20C1.45 20 0.979333 19.8043 0.588 19.413C0.196 19.021 0 18.55 0 18V5C0 4.71667 0.0960001 4.479 0.288 4.287C0.479333 4.09567 0.716667 4 1 4C1.28333 4 1.521 4.09567 1.713 4.287C1.90433 4.479 2 4.71667 2 5V18H15C15.2833 18 15.5207 18.096 15.712 18.288C15.904 18.4793 16 18.7167 16 19C16 19.2833 15.904 19.5207 15.712 19.712C15.5207 19.904 15.2833 20 15 20H2Z" fill="white"/>
</svg>
