<svg width="180" height="180" viewBox="0 0 180 180" fill="none" xmlns="http://www.w3.org/2000/svg">
  <path d="M135.631 180H44.3692C19.8598 180 0 160.13 0 135.631V42.3751C0 18.9747 18.9645 0 42.3649 0H135.631C160.14 0 180 19.87 180 44.3692V135.631C180 160.14 160.13 180 135.631 180Z" fill="url(#paint0_linear_24_60)"/>
  <g filter="url(#filter0_d_24_60)">
    <path d="M145.835 143.74C145.835 149.763 140.311 152.876 132.772 154.28V161.107H131.938V154.433C131.388 154.524 130.818 154.616 130.249 154.687C131.032 159.011 130.473 160.639 129.689 161.259C129.536 161.87 125.589 162.165 124.653 162.165C123.717 162.165 122.954 161.656 122.954 161.015C122.954 160.568 123.839 159.774 124.704 159.336C124.612 158.614 124.612 157.759 124.643 156.823C124.531 156.325 124.419 155.765 124.327 155.165C123.625 155.185 122.934 155.206 122.221 155.226C121.489 159.977 120.665 163.467 119.83 163.559C114.682 164.149 113.451 159.845 114.143 155.023C106.543 154.565 99.4212 153.435 95.2193 152.438C83.5191 149.641 102.575 99.8587 108.232 84.974C106.563 80.6501 105.872 77.4656 105.872 75.1866C105.872 74.7389 105.902 74.3218 105.953 73.9453C105.892 73.1517 105.902 72.3582 105.973 71.5646C103.938 72.0936 101.761 72.4192 99.7569 72.582C96.4097 73.223 89.1657 73.3552 80.9145 73.4366C80.8535 73.5078 80.7823 73.5587 80.7314 73.6198C79.8564 76.3871 76.7838 80.2533 76.6211 83.6107C76.3972 87.9957 73.7113 92.7267 70.9541 96.3385C71.8596 102.707 72.47 110.928 73.345 117.012C74.0674 122.038 76.1734 129.313 77.2315 135.712H77.2417L79.9175 149.803H76.7025C76.9161 150.973 77.0585 151.95 77.1705 152.601C77.8928 156.935 91.0174 160.049 87.2937 160.517C83.57 160.985 66.274 163.487 65.5516 159.143C65.3075 157.688 65.3075 154.046 65.5415 149.814H62.825L60.5155 135.722C59.3149 129.74 59.2132 122.934 59.2132 117.704C59.2132 116.392 58.9792 114.957 58.6129 113.461C57.7074 118.844 56.2831 124.195 54.3602 127.451C52.5593 130.523 51.1553 133.291 49.8632 135.427L46.7194 142.844L41.9986 140.982C41.083 143.689 39.9028 146.456 39.0278 148.298C36.9014 152.815 32.1501 157.271 28.9148 152.957C27.4599 151.004 27.8872 149.63 30.0136 145.113C30.9089 143.221 32.842 140.586 34.9683 138.225L30.1356 136.333L36.7386 129.486L36.7997 129.445C38.3868 127.603 40.6557 125.396 43.7994 122.72C48.3981 118.803 51.0027 104.437 53.6683 97.1728C53.5666 96.4504 53.5055 95.7281 53.5055 95.0464C53.5055 94.5886 53.5259 94.1612 53.5869 93.7339C50.4024 89.2777 48.5914 84.2313 50.9518 81.7794C57.7888 74.7084 60.6579 71.3001 62.0111 69.8146C60.9631 67.8002 60.139 65.3075 59.5388 62.357C58.8367 58.9894 56.9851 53.7396 58.8368 49.5072C58.8876 49.3953 59.0504 49.2732 59.3149 49.1511L59.1318 49.0697L60.4137 47.3808L60.6376 47.4825L62.123 44.6033L63.3947 44.8983C65.399 43.2501 65.9281 41.1542 65.104 38.9058C60.8716 36.1791 57.3208 30.3595 57.3208 26.2288C57.3208 20.9485 62.2654 17.469 68.3393 16.6652C80.9959 14.9763 77.3943 23.7159 79.4088 27.8567C79.5207 28.0907 79.6631 28.3145 79.8157 28.518C80.1616 28.9759 80.3855 29.5354 80.477 30.1764C80.945 33.1778 78.6864 37.695 74.4642 39.5773C74.5761 39.9333 74.7287 40.2691 74.8915 40.615C74.9423 40.4624 74.9729 40.3912 75.0034 40.3912L78.8187 43.3213H78.839L81.4131 45.0916C81.4843 45.1323 81.5148 45.2035 81.5148 45.2747V47.2078L79.4698 45.3867C79.0323 45.5088 78.6762 45.641 78.6762 45.7122V48.0421C78.9509 48.1744 79.1951 48.327 79.4088 48.5101C83.8854 52.2236 84.8112 59.4269 84.3941 63.8526C84.3127 64.7683 84.2008 65.6331 84.0583 66.4165C85.5844 66.8438 86.9478 67.2203 88.0364 67.5051C89.7456 67.9528 91.2107 68.2784 92.4723 68.5531C95.8196 67.6069 101.283 66.7929 104.335 64.9006C105.312 64.3003 106.34 63.7 107.377 63.1303C106.299 62.2858 105.668 61.3702 105.668 60.5867C105.668 58.0737 113.726 55.0927 121.611 54.7875H121.621C122.333 53.7498 122.761 52.7222 122.679 51.5013C122.618 50.6467 122.404 49.8429 122.272 49.029C118.172 48.856 113.38 48.9578 114.835 42.0496C115.852 37.1863 114.57 33.9917 122.72 30.2883C123.737 29.8305 124.765 29.7389 125.782 29.9322C126.301 29.7796 126.922 29.8 127.624 30.034C129.414 30.6342 130.696 31.5194 131.643 32.5978C130.971 29.0572 130.198 25.8524 130.127 23.8685C129.811 23.6345 129.567 23.2885 129.445 22.8917C129.14 21.915 126.952 20.2465 130.595 19.3817C135.305 18.2727 133.423 22.3423 133.118 23.0851C133.118 23.0952 133.108 23.1054 133.108 23.1054C136.353 26.8902 140.759 37.6645 140.759 44.7559C140.759 48.8865 139.395 53.353 137.655 56.9241C138.062 58.2976 138.541 59.6609 139.131 61.0141C140.372 63.8221 143.953 69.194 138.958 70.7812C137.371 71.2899 135.773 70.8931 134.328 70.2318C132.568 69.4382 130.116 68.258 128.936 66.7726C126.301 69.5399 123.717 72.7651 123.717 75.6647C127.237 78.9103 129.709 80.8128 130.747 83.509H130.757C139.466 96.9286 145.846 131.215 145.846 143.801L145.835 143.74Z" fill="url(#paint1_linear_24_60)"/>
  </g>
  <defs>
    <filter id="filter0_d_24_60" x="19.0604" y="7.45129" width="137.785" height="167.162" filterUnits="userSpaceOnUse" color-interpolation-filters="sRGB">
      <feFlood flood-opacity="0" result="BackgroundImageFix"/>
      <feColorMatrix in="SourceAlpha" type="matrix" values="0 0 0 0 0 0 0 0 0 0 0 0 0 0 0 0 0 0 127 0" result="hardAlpha"/>
      <feOffset dx="1" dy="1"/>
      <feGaussianBlur stdDeviation="5"/>
      <feComposite in2="hardAlpha" operator="out"/>
      <feColorMatrix type="matrix" values="0 0 0 0 0 0 0 0 0 0 0 0 0 0 0 0 0 0 0.2 0"/>
      <feBlend mode="normal" in2="BackgroundImageFix" result="effect1_dropShadow_24_60"/>
      <feBlend mode="normal" in="SourceGraphic" in2="effect1_dropShadow_24_60" result="shape"/>
    </filter>
    <linearGradient id="paint0_linear_24_60" x1="20.6636" y1="31.2853" x2="155.582" y2="145.54" gradientUnits="userSpaceOnUse">
      <stop stop-color="#7B53A2"/>
      <stop offset="1" stop-color="#D7ACD0"/>
    </linearGradient>
    <linearGradient id="paint1_linear_24_60" x1="74.5659" y1="70.8626" x2="119.657" y2="177.07" gradientUnits="userSpaceOnUse">
      <stop offset="0.2" stop-color="#2D0A3E"/>
      <stop offset="1" stop-color="#D7ACD0"/>
    </linearGradient>
  </defs>
</svg>
