<svg width="34" height="40" viewBox="0 0 34 40" fill="none" xmlns="http://www.w3.org/2000/svg">
    <path d="M33.2472 34.5982C33.2472 36.2353 31.7228 37.0815 29.6426 37.4632V39.3188H29.4124V37.5046C29.2608 37.5295 29.1036 37.5544 28.9464 37.5738C29.1626 38.7491 29.0082 39.1915 28.792 39.3602C28.7499 39.5262 27.6607 39.6064 27.4024 39.6064C27.1441 39.6064 26.9336 39.4681 26.9336 39.2939C26.9336 39.1722 27.1778 38.9565 27.4164 38.8376C27.3912 38.6412 27.3912 38.4089 27.3996 38.1545C27.3687 38.019 27.3378 37.8669 27.3126 37.7038C27.1189 37.7093 26.928 37.7148 26.7315 37.7203C26.5293 39.0118 26.3019 39.9603 26.0717 39.9852C24.6512 40.1456 24.3116 38.9758 24.5025 37.665C22.4054 37.5406 20.4403 37.2336 19.2809 36.9626C16.0525 36.2021 21.3106 22.671 22.8714 18.6251C22.411 17.4498 22.2201 16.5843 22.2201 15.9648C22.2201 15.8431 22.2285 15.7298 22.2426 15.6274C22.2257 15.4117 22.2285 15.196 22.2482 14.9803C21.6867 15.1241 21.086 15.2126 20.5329 15.2569C19.6093 15.4311 17.6105 15.467 15.3338 15.4892C15.317 15.5085 15.2973 15.5223 15.2833 15.5389C15.0419 16.2911 14.1941 17.342 14.1491 18.2546C14.0874 19.4465 13.3463 20.7324 12.5855 21.7141C12.8353 23.4453 13.0038 25.6797 13.2452 27.3334C13.4445 28.6996 14.0256 30.6768 14.3176 32.4163H14.3204L15.0587 36.2464H14.1716C14.2306 36.5644 14.2699 36.8299 14.3007 37.0069C14.5001 38.1849 18.1215 39.0312 17.094 39.1584C16.0665 39.2856 11.2941 39.9659 11.0948 38.785C11.0274 38.3896 11.0274 37.3996 11.092 36.2491H10.3425L9.7052 32.419C9.37393 30.793 9.34586 28.9429 9.34586 27.5215C9.34586 27.1648 9.28129 26.7748 9.18023 26.3683C8.93038 27.8312 8.53736 29.2858 8.00678 30.1708C7.50989 31.0059 7.12248 31.7581 6.76596 32.3388L5.8985 34.3548L4.59592 33.8488C4.34326 34.5844 4.01761 35.3366 3.77618 35.8371C3.18946 37.0649 1.87845 38.2762 0.985732 37.1037C0.584288 36.5727 0.702194 36.1994 1.28892 34.9715C1.53596 34.4572 2.06935 33.7409 2.65607 33.0993L1.32261 32.585L3.14454 30.7238L3.16139 30.7128C3.59933 30.2122 4.22535 29.6121 5.09281 28.8848C6.36171 27.8202 7.08037 23.9154 7.81589 21.9409C7.78781 21.7445 7.77097 21.5482 7.77097 21.3629C7.77097 21.2385 7.77658 21.1223 7.79343 21.0062C6.91474 19.7949 6.41504 18.4233 7.06634 17.7568C8.95284 15.8348 9.7445 14.9084 10.1179 14.5047C9.82872 13.9571 9.60133 13.2796 9.4357 12.4776C9.24199 11.5623 8.73106 10.1353 9.24199 8.98491C9.25603 8.95449 9.30095 8.9213 9.37394 8.88812L9.3234 8.86599L9.67712 8.40693L9.73888 8.43459L10.1487 7.65198L10.4997 7.73217C11.0527 7.28418 11.1987 6.7145 10.9713 6.10334C9.80345 5.36221 8.8237 3.78039 8.8237 2.65763C8.8237 1.22238 10.1881 0.276611 11.864 0.0581431C15.3563 -0.400916 14.3625 1.97458 14.9183 3.1001C14.9492 3.16371 14.9885 3.22454 15.0306 3.27985C15.1261 3.4043 15.1878 3.55639 15.2131 3.73062C15.3422 4.54641 14.719 5.77426 13.554 6.28586C13.5849 6.38265 13.627 6.47391 13.6719 6.56793C13.6859 6.52645 13.6944 6.50709 13.7028 6.50709L14.7555 7.30353H14.7611L15.4714 7.78472C15.491 7.79578 15.4995 7.81514 15.4995 7.83449V8.35992L14.9352 7.86491C14.8145 7.8981 14.7162 7.93405 14.7162 7.95341V8.58669C14.792 8.62264 14.8594 8.66412 14.9183 8.7139C16.1536 9.72327 16.409 11.6812 16.2939 12.8841C16.2715 13.133 16.2406 13.3681 16.2013 13.581C16.6224 13.6972 16.9986 13.7995 17.2989 13.8769C17.7706 13.9986 18.1748 14.0871 18.5229 14.1618C19.4465 13.9046 20.954 13.6833 21.7962 13.169C22.0657 13.0058 22.3493 12.8427 22.6356 12.6878C22.338 12.4583 22.164 12.2094 22.164 11.9964C22.164 11.3134 24.3874 10.5031 26.563 10.4202H26.5658C26.7623 10.1381 26.8802 9.85878 26.8578 9.52693C26.8409 9.29463 26.782 9.07616 26.7455 8.85493C25.6141 8.80792 24.2919 8.83557 24.6934 6.95786C24.9741 5.63599 24.6204 4.76765 26.869 3.76104C27.1497 3.63659 27.4333 3.6117 27.714 3.66425C27.8572 3.62276 28.0284 3.6283 28.2221 3.6919C28.7162 3.85506 29.0699 4.09565 29.331 4.38879C29.1457 3.42642 28.9324 2.55531 28.9127 2.01606C28.8257 1.95245 28.7583 1.85843 28.7246 1.75058C28.6404 1.4851 28.0368 1.03157 29.0419 0.796509C30.3416 0.495079 29.8223 1.60125 29.7381 1.80312C29.7381 1.80589 29.7353 1.80865 29.7353 1.80865C30.6308 2.83739 31.8463 5.76596 31.8463 7.69346C31.8463 8.81622 31.4702 10.0302 30.9901 11.0009C31.1024 11.3742 31.2344 11.7448 31.3972 12.1126C31.7397 12.8758 32.7278 14.336 31.3495 14.7674C30.9115 14.9057 30.4708 14.7978 30.0721 14.6181C29.5865 14.4024 28.9099 14.0816 28.5843 13.6778C27.8572 14.43 27.1441 15.3066 27.1441 16.0948C28.1154 16.977 28.7976 17.4941 29.084 18.2269H29.0868C31.4898 21.8745 33.25 31.194 33.25 34.6148L33.2472 34.5982Z"
          fill="url(#paint0_linear_773_474)"/>
    <defs>
        <linearGradient id="paint0_linear_773_474" x1="13.5821" y1="14.7895" x2="25.7104" y2="43.7889"
                        gradientUnits="userSpaceOnUse">
            <stop offset="0.2" stop-color="#1C1C1E"/>
            <stop offset="1" stop-color="#3A3A3C"/>
        </linearGradient>
    </defs>
</svg>
