<svg viewBox="0 0 21 21" fill="none" xmlns="http://www.w3.org/2000/svg">
    <path d="M11.4897 13.0405C12.1897 13.0405 12.7814 12.7989 13.2647 12.3155C13.7481 11.8322 13.9897 11.2405 13.9897 10.5405V5.04053H16.9897V3.04053H12.9897V8.54053C12.7731 8.37386 12.5397 8.24886 12.2897 8.16553C12.0397 8.08219 11.7731 8.04053 11.4897 8.04053C10.7897 8.04053 10.1981 8.28219 9.71475 8.76553C9.23141 9.24886 8.98975 9.84053 8.98975 10.5405C8.98975 11.2405 9.23141 11.8322 9.71475 12.3155C10.1981 12.7989 10.7897 13.0405 11.4897 13.0405ZM6.98975 16.0405C6.43975 16.0405 5.96891 15.8447 5.57725 15.453C5.18558 15.0614 4.98975 14.5905 4.98975 14.0405V2.04053C4.98975 1.49053 5.18558 1.01969 5.57725 0.628027C5.96891 0.236361 6.43975 0.0405273 6.98975 0.0405273H18.9897C19.5397 0.0405273 20.0106 0.236361 20.4022 0.628027C20.7939 1.01969 20.9897 1.49053 20.9897 2.04053V14.0405C20.9897 14.5905 20.7939 15.0614 20.4022 15.453C20.0106 15.8447 19.5397 16.0405 18.9897 16.0405H6.98975ZM6.98975 14.0405H18.9897V2.04053H6.98975V14.0405ZM2.98975 20.0405C2.43975 20.0405 1.96891 19.8447 1.57725 19.453C1.18558 19.0614 0.989746 18.5905 0.989746 18.0405V4.04053H2.98975V18.0405H16.9897V20.0405H2.98975Z" fill="#FFF"/>
</svg>
