<svg width="18" height="14" viewBox="0 0 18 14" fill="none" xmlns="http://www.w3.org/2000/svg">
    <path d="M4.5 13.5455C3.25909 13.5455 2.199 13.116 1.31973 12.2569C0.439909 11.3978 0 10.3478 0 9.10686C0 8.04323 0.320454 7.0955 0.961364 6.26368C1.60227 5.43186 2.44091 4.90004 3.47727 4.66823C3.81818 3.41368 4.5 2.39777 5.52273 1.6205C6.54545 0.843226 7.70455 0.45459 9 0.45459C10.5955 0.45459 11.9487 1.01014 13.0598 2.12123C14.1715 3.23286 14.7273 4.58641 14.7273 6.18186C15.6682 6.29095 16.449 6.6965 17.0697 7.3985C17.6899 8.10104 18 8.92277 18 9.86368C18 10.8864 17.6422 11.7559 16.9265 12.472C16.2104 13.1877 15.3409 13.5455 14.3182 13.5455H9.81818V7.6955L10.5545 8.41141C10.7045 8.56141 10.8922 8.63641 11.1175 8.63641C11.3422 8.63641 11.5364 8.55459 11.7 8.39095C11.85 8.24095 11.925 8.05004 11.925 7.81823C11.925 7.58641 11.85 7.3955 11.7 7.2455L9.57273 5.11823C9.40909 4.95459 9.21818 4.87277 9 4.87277C8.78182 4.87277 8.59091 4.95459 8.42727 5.11823L6.3 7.2455C6.15 7.3955 6.07173 7.58286 6.06518 7.80759C6.05809 8.03286 6.13636 8.22732 6.3 8.39095C6.45 8.54095 6.63736 8.6195 6.86209 8.62659C7.08736 8.63313 7.28182 8.56141 7.44545 8.41141L8.18182 7.6955V13.5455H4.5Z" fill="white"/>
</svg>
